<?xml version="1.0" encoding="UTF-8" standalone="no"?>
<!-- Created with Inkscape (http://www.inkscape.org/) -->

<svg
   width="137.89659mm"
   height="20.999296mm"
   viewBox="0 0 137.89659 20.999296"
   version="1.1"
   id="svg1"
   xmlns="http://www.w3.org/2000/svg">
  <defs id="defs1" />
  <g transform="translate(-49.250872,-121.69735)">
    <g id="g19">
      <path
          style="fill:currentColor"
          d="m 172.4663,142.52056 c -0.23096,-0.10004 -0.43928,-0.30036 -0.57616,-0.55401 l -0.10964,-0.2032 -0.0138,-7.70719 -0.0138,-7.70719 -4.81219,-0.0144 -4.81219,-0.0144 -0.21382,-0.11427 c -0.58058,-0.31028 -0.6352,-0.51357 -0.61473,-2.28824 l 0.0157,-1.36497 0.15264,-0.24986 c 0.11472,-0.18777 0.22134,-0.28468 0.42905,-0.38997 l 0.2764,-0.14012 12.09315,0.0131 12.09316,0.0131 0.2372,0.13944 c 0.18669,0.10975 0.27054,0.20614 0.3937,0.45262 l 0.1565,0.31317 v 1.3317 c 0,1.4561 -0.0278,1.63757 -0.29408,1.92186 -0.0757,0.0809 -0.24059,0.19548 -0.36632,0.25472 -0.22718,0.10702 -0.25846,0.10778 -5.0165,0.12164 l -4.7879,0.014 v 7.56545 c 0,5.13312 -0.0173,7.64611 -0.0538,7.81632 -0.0659,0.30743 -0.33891,0.64408 -0.62917,0.77592 -0.18611,0.0845 -0.35828,0.0935 -1.78083,0.0927 -1.29375,-7.1e-4 -1.60653,-0.0146 -1.7526,-0.0779 z"
          id="path13" />
      <path
          style="fill:currentColor"
          d="m 135.07415,142.46186 c -0.20693,-0.10491 -0.31357,-0.20196 -0.42821,-0.38969 l -0.15264,-0.24999 v -3.91561 -3.91562 l 9.4234,-0.0269 c 7.44446,-0.0213 9.46369,-0.0405 9.61529,-0.0917 0.10553,-0.0356 0.27102,-0.13424 0.36775,-0.21916 0.32497,-0.28533 0.32936,-0.33196 0.32936,-3.49765 0,-3.07309 -0.008,-3.17359 -0.28447,-3.50195 -0.27417,-0.32584 0.30445,-0.30797 -9.99905,-0.30883 -5.14288,-4.2e-4 -9.38034,-0.0196 -9.41658,-0.0426 -0.0525,-0.0333 -0.0628,-0.41903 -0.0508,-1.89561 l 0.0151,-1.85382 0.15264,-0.2499 c 0.1146,-0.18761 0.22134,-0.28473 0.42821,-0.38961 l 0.27557,-0.1397 h 9.37752 c 6.19799,0 9.52348,0.018 9.80799,0.053 1.59708,0.1965 2.81111,0.82019 3.58538,1.84192 0.32579,0.42992 0.70988,1.24884 0.85614,1.82543 0.22193,0.87486 0.23883,1.26015 0.21789,4.96649 -0.0191,3.3824 -0.0229,3.49393 -0.13345,3.9849 -0.30863,1.37003 -0.95431,2.41303 -1.89481,3.06078 -0.60256,0.415 -1.1287,0.637 -1.99748,0.84282 -0.45319,0.10737 -0.5243,0.10856 -8.1026,0.13581 l -7.6454,0.0275 -0.0254,1.6764 c -0.0277,1.82733 -0.0269,1.82234 -0.33837,2.1182 -0.29819,0.28325 -0.38104,0.2948 -2.11469,0.2948 h -1.59272 z"
          id="path12" />
      <path
          style="fill:currentColor"
          d="m 117.45042,142.53576 c -0.24358,-0.079 -0.57336,-0.4227 -0.64925,-0.6767 -0.0468,-0.15659 -0.0625,-1.08193 -0.0625,-3.68525 v -3.47617 l -2.06465,-2.23294 c -1.13556,-1.22812 -2.77857,-2.99876 -3.65113,-3.93475 -0.87256,-0.93599 -2.32119,-2.5019 -3.21919,-3.4798 -1.48985,-1.62242 -1.63984,-1.80199 -1.71406,-2.05221 -0.13924,-0.46938 0.0414,-0.86482 0.49936,-1.09301 l 0.26362,-0.13138 1.78073,2.9e-4 c 1.05523,1.7e-4 1.85683,0.0214 1.96753,0.0522 0.10275,0.0285 0.29565,0.12556 0.42867,0.21561 0.27395,0.18545 0.55439,0.4801 4.94258,5.19294 1.74302,1.87198 3.19531,3.4036 3.22729,3.4036 0.051,0 5.67657,-6.03009 7.24068,-7.76134 0.32055,-0.35481 0.67948,-0.71452 0.79763,-0.79937 0.41367,-0.29707 0.46871,-0.3039 2.45136,-0.3039 h 1.81244 l 0.26738,0.13325 c 0.36954,0.18414 0.54102,0.44874 0.5369,0.82843 -0.002,0.17798 -0.0396,0.35098 -0.1016,0.46639 -0.0542,0.1009 -2.45883,2.72508 -5.34363,5.8315 l -5.24511,5.64803 -0.002,3.4903 c -0.002,3.75408 0.003,3.67762 -0.27092,4.0364 -0.27348,0.35855 -0.32247,0.36728 -2.11444,0.37685 -1.07496,0.006 -1.65839,-0.0103 -1.77748,-0.0489 z"
          id="path11" />
      <path
          style="fill:currentColor"
          d="m 95.859896,142.02777 c -0.895386,-0.87597 -6.88858,-6.67976 -8.1915,-7.93262 -0.635635,-0.61122 -1.1557,-1.13943 -1.1557,-1.17381 0,-0.0344 0.03616,-0.0764 0.08035,-0.0934 0.0442,-0.017 2.623226,-0.0308 5.731179,-0.0308 6.189007,0 6.003892,0.009 6.296513,-0.29671 0.273494,-0.28547 0.287153,-0.42411 0.287153,-2.91467 0,-1.5471 -0.01874,-2.35527 -0.05827,-2.51224 -0.07237,-0.28742 -0.350816,-0.59054 -0.627531,-0.68315 -0.165655,-0.0554 -1.944363,-0.0729 -9.6266,-0.0945 l -9.4234,-0.0265 -0.01443,-1.7018 c -0.0094,-1.10885 0.0049,-1.78145 0.04118,-1.9304 0.07562,-0.31083 0.262084,-0.56718 0.520054,-0.71494 l 0.215202,-0.12326 h 9.652 9.652 l 0.520707,0.11527 c 2.243327,0.49658 3.481217,1.72776 3.982487,3.96091 0.10573,0.47102 0.11235,0.63938 0.13226,3.36602 0.0226,3.09019 -0.003,3.60931 -0.21748,4.45742 -0.51983,2.05327 -1.96904,3.10984 -4.815035,3.51046 -0.465929,0.0656 -0.621816,0.10609 -0.633066,0.1645 -0.009,0.0465 0.722788,0.78018 1.828401,1.83329 3.16966,3.01914 3.36422,3.21257 3.32752,3.30822 -0.0308,0.0803 -0.27949,0.0864 -3.4765,0.0854 l -3.443294,-0.001 z"
          id="path10" />
      <path
          style="fill:currentColor"
          d="m 53.909445,142.64355 c -0.203858,-0.0256 -0.584047,-0.10062 -0.844864,-0.16679 -2.116284,-0.53683 -3.328106,-1.88595 -3.720846,-4.1424 -0.08614,-0.49492 -0.09284,-0.93841 -0.09284,-6.14681 0,-6.27787 -0.0096,-6.08756 0.364888,-7.22376 0.223513,-0.67811 0.530223,-1.20751 0.969132,-1.67278 0.757194,-0.80266 1.624624,-1.23352 2.98398,-1.48216 l 0.6096,-0.1115 h 8.255 c 6.530641,0 8.345197,0.0138 8.6868,0.0662 2.443648,0.3748 3.826237,1.65571 4.29749,3.98143 0.06967,0.34385 0.07186,0.41658 0.01365,0.45346 -0.03838,0.0243 -4.561727,0.0443 -10.131216,0.0447 -11.209386,8.7e-4 -10.404976,-0.025 -10.796716,0.34742 -0.360493,0.34274 -0.350404,0.1816 -0.350404,5.59696 0,4.179 0.01027,4.84408 0.07886,5.10743 0.121252,0.46552 0.40838,0.70924 0.977738,0.82992 0.193943,0.0411 3.066225,0.0571 10.2743,0.0571 h 10.0051 v 0.14588 c 0,0.0802 -0.05481,0.36196 -0.121803,0.62605 -0.542752,2.13959 -1.929329,3.34654 -4.221597,3.67468 -0.425334,0.0609 -1.838929,0.0718 -8.6868,0.0671 -4.604991,-0.003 -8.34076,-0.0259 -8.549451,-0.0521 z"
          id="path8-8" />
    </g>
  </g>
</svg>
