<?xml version="1.0" encoding="UTF-8" standalone="no"?>
<!-- Created with Inkscape (http://www.inkscape.org/) -->

<svg
   width="137.89659mm"
   height="84.615448mm"
   viewBox="0 0 137.89659 84.615448"
   version="1.1"
   id="svg1"
   xml:space="preserve"
   inkscape:version="1.4.2 (ebf0e940, 2025-05-08)"
   sodipodi:docname="crypt.svg"
   xmlns:inkscape="http://www.inkscape.org/namespaces/inkscape"
   xmlns:sodipodi="http://sodipodi.sourceforge.net/DTD/sodipodi-0.dtd"
   xmlns="http://www.w3.org/2000/svg"
   xmlns:svg="http://www.w3.org/2000/svg"><sodipodi:namedview
     id="namedview1"
     pagecolor="#ffffff"
     bordercolor="#000000"
     borderopacity="0.25"
     inkscape:showpageshadow="2"
     inkscape:pageopacity="0.0"
     inkscape:pagecheckerboard="0"
     inkscape:deskcolor="#d1d1d1"
     inkscape:document-units="mm"
     inkscape:zoom="1.3425936"
     inkscape:cx="139.65507"
     inkscape:cy="191.04813"
     inkscape:window-width="2560"
     inkscape:window-height="1292"
     inkscape:window-x="1512"
     inkscape:window-y="30"
     inkscape:window-maximized="0"
     inkscape:current-layer="layer1" /><defs
     id="defs1"><clipPath
       clipPathUnits="userSpaceOnUse"
       id="clipPath9"><ellipse
         style="fill:#ff00ff;stroke-width:0.264583"
         id="ellipse9"
         cx="93.7901"
         cy="45.874924"
         rx="19.168982"
         ry="18.689756" /></clipPath></defs><g
     inkscape:label="Layer 1"
     inkscape:groupmode="layer"
     id="layer1"
     transform="translate(-49.250872,-58.081198)"><g
       id="g18"><path
         style="fill:#000000"
         d="m 118.69224,80.64774 c -1.08748,-0.2092 -1.79248,-0.52604 -4.9276,-2.2145 -0.90805,-0.48904 -2.34823,-1.2614 -3.2004,-1.71635 -2.84927,-1.52113 -3.23916,-1.761639 -3.86618,-2.384849 -0.3775,-0.3752 -0.44546,-0.4695 -0.49788,-0.69086 -0.10891,-0.45988 0.0901,-0.95331 0.53949,-1.33741 0.413,-0.35302 1.36475,-0.88492 6.23757,-3.48596 1.03378,-0.55181 2.4859,-1.33186 3.22694,-1.73343 0.74103,-0.40157 1.55256,-0.81506 1.8034,-0.91885 0.44521,-0.18423 0.47177,-0.18876 1.11646,-0.19027 0.77911,-0.002 0.90498,0.0328 1.87236,0.51579 1.22858,0.61335 9.38853,5.00711 10.00151,5.38536 0.82435,0.50867 1.17541,0.95913 1.17925,1.51312 0.003,0.3795 -0.13784,0.63979 -0.56376,1.04467 -0.52521,0.49927 -0.9323,0.745129 -3.42156,2.066509 -0.68453,0.36337 -1.99898,1.06609 -2.92101,1.56159 -3.28346,1.76457 -4.3719,2.2946 -5.10539,2.48613 -0.32741,0.0855 -1.22906,0.14627 -1.4732,0.0993 z"
         id="path18" /><path
         style="fill:#000000"
         d="m 121.81662,98.802701 c -0.66263,-0.18647 -1.02344,-0.67931 -1.25178,-1.70982 -0.0757,-0.34163 -0.0843,-0.91385 -0.0829,-5.53721 0.002,-5.77133 -0.0173,-5.43922 0.37555,-6.55462 0.24349,-0.69124 0.38242,-0.92884 0.80822,-1.38216 0.63731,-0.6785 0.95061,-0.87839 3.56451,-2.27413 0.85218,-0.45504 2.67539,-1.44112 4.0516,-2.1913 1.37621,-0.75018 2.73038,-1.47847 3.00927,-1.61843 1.20756,-0.60598 1.94236,-0.67117 2.44514,-0.21693 0.25822,0.23328 0.4192,0.51202 0.53593,0.92797 0.0872,0.31088 0.0926,0.66597 0.0908,6.0706 -0.002,6.38692 0.0119,6.1095 -0.34807,6.94204 -0.37536,0.86821 -0.84883,1.44859 -1.71253,2.09921 -0.86653,0.65274 -1.66647,1.09322 -6.01477,3.31193 -4.06639,2.07487 -4.74163,2.33811 -5.471,2.13285 z"
         id="path17" /><path
         style="fill:#000000"
         d="m 115.39476,98.869201 c -0.78979,-0.19572 -7.36648,-3.52441 -9.12496,-4.61846 -2.01368,-1.25282 -2.921,-2.32523 -3.22803,-3.81532 -0.14506,-0.70403 -0.18235,-1.87342 -0.18136,-5.68696 0.001,-4.56879 0.0475,-6.12653 0.19656,-6.60616 0.29081,-0.93602 0.96989,-1.29497 1.96134,-1.03673 0.44616,0.11621 0.99504,0.39184 3.30055,1.65742 1.14554,0.62882 2.98577,1.62995 4.0894,2.22471 1.10363,0.59476 2.22377,1.20784 2.4892,1.36239 1.78447,1.03905 2.36529,1.74041 2.79522,3.37533 l 0.15053,0.57244 -0.001,4.8514 c -6.8e-4,2.66828 -0.0215,5.12573 -0.0462,5.46101 -0.0741,1.00417 -0.39348,1.70683 -0.95003,2.09037 -0.27725,0.19107 -0.29527,0.19586 -0.77316,0.20545 -0.26911,0.005 -0.57411,-0.0112 -0.67778,-0.0369 z"
         id="path16" /><path
         style="fill:#000000"
         d="m 113.7161,103.60412 c -2.49322,-0.20577 -4.131,-0.52331 -6.12487,-1.1875 -3.60413,-1.2006 -6.83896,-3.229507 -9.445334,-5.924167 -3.095258,-3.20011 -5.122161,-7.24183 -5.610694,-11.1879 -0.443267,-3.58045 0.05854,-7.30852 1.47086,-10.927389 1.718683,-4.4039 4.673029,-8.22875 8.634388,-11.17853 2.41782,-1.80042 5.18345,-3.18312 8.06853,-4.03395 4.52509,-1.33448 9.07066,-1.43625 13.63545,-0.30529 3.80093,0.94172 7.40924,2.79918 10.57198,5.44218 0.78846,0.6589 2.55156,2.42651 3.20811,3.21634 0.96323,1.15875 1.90882,2.49071 2.51604,3.5441 0.19572,0.33953 0.22971,0.43264 0.17985,0.49272 -0.11423,0.13764 -1.02346,0.6978 -1.09074,0.67198 -0.0367,-0.0141 -0.3483,-0.36467 -0.69242,-0.77908 -0.75569,-0.91004 -2.52828,-2.69183 -3.40095,-3.4186 -1.20276,-1.00166 -2.73506,-2.08064 -3.937,-2.77226 -2.18431,-1.25688 -5.16321,-2.36509 -7.63742,-2.84127 -1.23465,-0.23762 -2.18635,-0.33391 -3.61478,-0.36573 -3.21814,-0.0717 -5.40481,0.22918 -8.04751,1.10726 -7.85545,2.61013 -13.687109,9.25423 -14.73053,16.782729 -0.281689,2.03244 -0.220508,4.24131 0.172365,6.223 0.898668,4.53297 3.548395,8.80511 7.518075,12.12133 3.00222,2.508027 6.67361,4.313107 10.541,5.182597 l 0.4064,0.0914 -0.254,0.0355 c -0.25167,0.0352 -1.94573,0.0428 -2.3368,0.0106 z"
         id="path15" /><path
         style="fill:#000000"
         d="m 116.6223,110.596 c -4.505,-0.26773 -9.16865,-1.83918 -13.0408,-4.39419 -2.93111,-1.93406 -5.572804,-4.54768 -7.502368,-7.422617 -1.76852,-2.63499 -2.869359,-5.03853 -3.671979,-8.01732 -0.112672,-0.41816 -0.204325,-0.79535 -0.203674,-0.8382 6.51e-4,-0.0428 0.171732,0.31941 0.380179,0.80503 1.927457,4.49041 5.137844,8.30697 9.245242,10.990887 3.33334,2.17812 7.40422,3.59009 11.4046,3.95564 1.00472,0.0918 3.48518,0.079 4.445,-0.0229 4.90841,-0.52132 9.30857,-2.23259 13.12977,-5.10631 0.83579,-0.628537 1.15274,-0.898177 2.03046,-1.727337 3.26498,-3.08435 5.35579,-6.45741 6.64995,-10.7282 0.13868,-0.45764 0.27507,-0.83972 0.30311,-0.84906 0.028,-0.009 1.02719,0.17848 2.22034,0.41739 1.19316,0.2389 2.17838,0.43437 2.18938,0.43437 0.0454,0 0.013,0.28562 -0.10748,0.94912 -0.93853,5.16808 -3.63815,10.16789 -7.5245,13.935727 -2.0919,2.02811 -4.32323,3.60129 -6.95303,4.9022 -2.20222,1.0894 -4.281,1.79705 -6.62941,2.25679 -1.96973,0.3856 -4.51335,0.56904 -6.36479,0.45901 z"
         id="path14" /><path
         style="fill:#000000"
         d="m 172.4663,142.52056 c -0.23096,-0.10004 -0.43928,-0.30036 -0.57616,-0.55401 l -0.10964,-0.2032 -0.0138,-7.70719 -0.0138,-7.70719 -4.81219,-0.0144 -4.81219,-0.0144 -0.21382,-0.11427 c -0.58058,-0.31028 -0.6352,-0.51357 -0.61473,-2.28824 l 0.0157,-1.36497 0.15264,-0.24986 c 0.11472,-0.18777 0.22134,-0.28468 0.42905,-0.38997 l 0.2764,-0.14012 12.09315,0.0131 12.09316,0.0131 0.2372,0.13944 c 0.18669,0.10975 0.27054,0.20614 0.3937,0.45262 l 0.1565,0.31317 v 1.3317 c 0,1.4561 -0.0278,1.63757 -0.29408,1.92186 -0.0757,0.0809 -0.24059,0.19548 -0.36632,0.25472 -0.22718,0.10702 -0.25846,0.10778 -5.0165,0.12164 l -4.7879,0.014 v 7.56545 c 0,5.13312 -0.0173,7.64611 -0.0538,7.81632 -0.0659,0.30743 -0.33891,0.64408 -0.62917,0.77592 -0.18611,0.0845 -0.35828,0.0935 -1.78083,0.0927 -1.29375,-7.1e-4 -1.60653,-0.0146 -1.7526,-0.0779 z"
         id="path13" /><path
         style="fill:#000000"
         d="m 135.07415,142.46186 c -0.20693,-0.10491 -0.31357,-0.20196 -0.42821,-0.38969 l -0.15264,-0.24999 v -3.91561 -3.91562 l 9.4234,-0.0269 c 7.44446,-0.0213 9.46369,-0.0405 9.61529,-0.0917 0.10553,-0.0356 0.27102,-0.13424 0.36775,-0.21916 0.32497,-0.28533 0.32936,-0.33196 0.32936,-3.49765 0,-3.07309 -0.008,-3.17359 -0.28447,-3.50195 -0.27417,-0.32584 0.30445,-0.30797 -9.99905,-0.30883 -5.14288,-4.2e-4 -9.38034,-0.0196 -9.41658,-0.0426 -0.0525,-0.0333 -0.0628,-0.41903 -0.0508,-1.89561 l 0.0151,-1.85382 0.15264,-0.2499 c 0.1146,-0.18761 0.22134,-0.28473 0.42821,-0.38961 l 0.27557,-0.1397 h 9.37752 c 6.19799,0 9.52348,0.018 9.80799,0.053 1.59708,0.1965 2.81111,0.82019 3.58538,1.84192 0.32579,0.42992 0.70988,1.24884 0.85614,1.82543 0.22193,0.87486 0.23883,1.26015 0.21789,4.96649 -0.0191,3.3824 -0.0229,3.49393 -0.13345,3.9849 -0.30863,1.37003 -0.95431,2.41303 -1.89481,3.06078 -0.60256,0.415 -1.1287,0.637 -1.99748,0.84282 -0.45319,0.10737 -0.5243,0.10856 -8.1026,0.13581 l -7.6454,0.0275 -0.0254,1.6764 c -0.0277,1.82733 -0.0269,1.82234 -0.33837,2.1182 -0.29819,0.28325 -0.38104,0.2948 -2.11469,0.2948 h -1.59272 z"
         id="path12" /><path
         style="fill:#000000"
         d="m 117.45042,142.53576 c -0.24358,-0.079 -0.57336,-0.4227 -0.64925,-0.6767 -0.0468,-0.15659 -0.0625,-1.08193 -0.0625,-3.68525 v -3.47617 l -2.06465,-2.23294 c -1.13556,-1.22812 -2.77857,-2.99876 -3.65113,-3.93475 -0.87256,-0.93599 -2.32119,-2.5019 -3.21919,-3.4798 -1.48985,-1.62242 -1.63984,-1.80199 -1.71406,-2.05221 -0.13924,-0.46938 0.0414,-0.86482 0.49936,-1.09301 l 0.26362,-0.13138 1.78073,2.9e-4 c 1.05523,1.7e-4 1.85683,0.0214 1.96753,0.0522 0.10275,0.0285 0.29565,0.12556 0.42867,0.21561 0.27395,0.18545 0.55439,0.4801 4.94258,5.19294 1.74302,1.87198 3.19531,3.4036 3.22729,3.4036 0.051,0 5.67657,-6.03009 7.24068,-7.76134 0.32055,-0.35481 0.67948,-0.71452 0.79763,-0.79937 0.41367,-0.29707 0.46871,-0.3039 2.45136,-0.3039 h 1.81244 l 0.26738,0.13325 c 0.36954,0.18414 0.54102,0.44874 0.5369,0.82843 -0.002,0.17798 -0.0396,0.35098 -0.1016,0.46639 -0.0542,0.1009 -2.45883,2.72508 -5.34363,5.8315 l -5.24511,5.64803 -0.002,3.4903 c -0.002,3.75408 0.003,3.67762 -0.27092,4.0364 -0.27348,0.35855 -0.32247,0.36728 -2.11444,0.37685 -1.07496,0.006 -1.65839,-0.0103 -1.77748,-0.0489 z"
         id="path11" /><path
         style="fill:#000000"
         d="m 95.859896,142.02777 c -0.895386,-0.87597 -6.88858,-6.67976 -8.1915,-7.93262 -0.635635,-0.61122 -1.1557,-1.13943 -1.1557,-1.17381 0,-0.0344 0.03616,-0.0764 0.08035,-0.0934 0.0442,-0.017 2.623226,-0.0308 5.731179,-0.0308 6.189007,0 6.003892,0.009 6.296513,-0.29671 0.273494,-0.28547 0.287153,-0.42411 0.287153,-2.91467 0,-1.5471 -0.01874,-2.35527 -0.05827,-2.51224 -0.07237,-0.28742 -0.350816,-0.59054 -0.627531,-0.68315 -0.165655,-0.0554 -1.944363,-0.0729 -9.6266,-0.0945 l -9.4234,-0.0265 -0.01443,-1.7018 c -0.0094,-1.10885 0.0049,-1.78145 0.04118,-1.9304 0.07562,-0.31083 0.262084,-0.56718 0.520054,-0.71494 l 0.215202,-0.12326 h 9.652 9.652 l 0.520707,0.11527 c 2.243327,0.49658 3.481217,1.72776 3.982487,3.96091 0.10573,0.47102 0.11235,0.63938 0.13226,3.36602 0.0226,3.09019 -0.003,3.60931 -0.21748,4.45742 -0.51983,2.05327 -1.96904,3.10984 -4.815035,3.51046 -0.465929,0.0656 -0.621816,0.10609 -0.633066,0.1645 -0.009,0.0465 0.722788,0.78018 1.828401,1.83329 3.16966,3.01914 3.36422,3.21257 3.32752,3.30822 -0.0308,0.0803 -0.27949,0.0864 -3.4765,0.0854 l -3.443294,-0.001 z"
         id="path10" /><path
         style="fill:#000000"
         d="m 53.909445,142.64355 c -0.203858,-0.0256 -0.584047,-0.10062 -0.844864,-0.16679 -2.116284,-0.53683 -3.328106,-1.88595 -3.720846,-4.1424 -0.08614,-0.49492 -0.09284,-0.93841 -0.09284,-6.14681 0,-6.27787 -0.0096,-6.08756 0.364888,-7.22376 0.223513,-0.67811 0.530223,-1.20751 0.969132,-1.67278 0.757194,-0.80266 1.624624,-1.23352 2.98398,-1.48216 l 0.6096,-0.1115 h 8.255 c 6.530641,0 8.345197,0.0138 8.6868,0.0662 2.443648,0.3748 3.826237,1.65571 4.29749,3.98143 0.06967,0.34385 0.07186,0.41658 0.01365,0.45346 -0.03838,0.0243 -4.561727,0.0443 -10.131216,0.0447 -11.209386,8.7e-4 -10.404976,-0.025 -10.796716,0.34742 -0.360493,0.34274 -0.350404,0.1816 -0.350404,5.59696 0,4.179 0.01027,4.84408 0.07886,5.10743 0.121252,0.46552 0.40838,0.70924 0.977738,0.82992 0.193943,0.0411 3.066225,0.0571 10.2743,0.0571 h 10.0051 v 0.14588 c 0,0.0802 -0.05481,0.36196 -0.121803,0.62605 -0.542752,2.13959 -1.929329,3.34654 -4.221597,3.67468 -0.425334,0.0609 -1.838929,0.0718 -8.6868,0.0671 -4.604991,-0.003 -8.34076,-0.0259 -8.549451,-0.0521 z"
         id="path8-8" /></g></g></svg>
