<?xml version="1.0" encoding="UTF-8" standalone="no"?>
<!-- Created with Inkscape (http://www.inkscape.org/) -->

<svg
   width="52.017654mm"
   height="52.546402mm"
   viewBox="0 0 52.017654 52.546402"
   version="1.1"
   id="svg1"
   inkscape:version="1.4.2 (ebf0e940, 2025-05-08)"
   sodipodi:docname="crypt_icon.svg"
   xmlns:inkscape="http://www.inkscape.org/namespaces/inkscape"
   xmlns:sodipodi="http://sodipodi.sourceforge.net/DTD/sodipodi-0.dtd"
   xmlns="http://www.w3.org/2000/svg"
   xmlns:svg="http://www.w3.org/2000/svg">
  <sodipodi:namedview
     id="namedview1"
     pagecolor="#ffffff"
     bordercolor="#000000"
     borderopacity="0.25"
     inkscape:showpageshadow="2"
     inkscape:pageopacity="0.0"
     inkscape:pagecheckerboard="0"
     inkscape:deskcolor="#d1d1d1"
     inkscape:document-units="mm"
     inkscape:zoom="1.8651315"
     inkscape:cx="82.835983"
     inkscape:cy="94.899476"
     inkscape:window-width="976"
     inkscape:window-height="949"
     inkscape:window-x="2240"
     inkscape:window-y="30"
     inkscape:window-maximized="0"
     inkscape:current-layer="layer1" />
  <defs
     id="defs1" />
  <g
     inkscape:label="Layer 1"
     inkscape:groupmode="layer"
     id="layer1"
     transform="translate(-79.110417,-122.2375)">
    <g
       id="g18"
       transform="translate(-13.093059,64.156302)">
      <path
          style="fill:currentColor"
          d="m 118.69224,80.64774 c -1.08748,-0.2092 -1.79248,-0.52604 -4.9276,-2.2145 -0.90805,-0.48904 -2.34823,-1.2614 -3.2004,-1.71635 -2.84927,-1.52113 -3.23916,-1.761639 -3.86618,-2.384849 -0.3775,-0.3752 -0.44546,-0.4695 -0.49788,-0.69086 -0.10891,-0.45988 0.0901,-0.95331 0.53949,-1.33741 0.413,-0.35302 1.36475,-0.88492 6.23757,-3.48596 1.03378,-0.55181 2.4859,-1.33186 3.22694,-1.73343 0.74103,-0.40157 1.55256,-0.81506 1.8034,-0.91885 0.44521,-0.18423 0.47177,-0.18876 1.11646,-0.19027 0.77911,-0.002 0.90498,0.0328 1.87236,0.51579 1.22858,0.61335 9.38853,5.00711 10.00151,5.38536 0.82435,0.50867 1.17541,0.95913 1.17925,1.51312 0.003,0.3795 -0.13784,0.63979 -0.56376,1.04467 -0.52521,0.49927 -0.9323,0.745129 -3.42156,2.066509 -0.68453,0.36337 -1.99898,1.06609 -2.92101,1.56159 -3.28346,1.76457 -4.3719,2.2946 -5.10539,2.48613 -0.32741,0.0855 -1.22906,0.14627 -1.4732,0.0993 z"
          id="path18" />
      <path
          style="fill:currentColor"
          d="m 121.81662,98.802701 c -0.66263,-0.18647 -1.02344,-0.67931 -1.25178,-1.70982 -0.0757,-0.34163 -0.0843,-0.91385 -0.0829,-5.53721 0.002,-5.77133 -0.0173,-5.43922 0.37555,-6.55462 0.24349,-0.69124 0.38242,-0.92884 0.80822,-1.38216 0.63731,-0.6785 0.95061,-0.87839 3.56451,-2.27413 0.85218,-0.45504 2.67539,-1.44112 4.0516,-2.1913 1.37621,-0.75018 2.73038,-1.47847 3.00927,-1.61843 1.20756,-0.60598 1.94236,-0.67117 2.44514,-0.21693 0.25822,0.23328 0.4192,0.51202 0.53593,0.92797 0.0872,0.31088 0.0926,0.66597 0.0908,6.0706 -0.002,6.38692 0.0119,6.1095 -0.34807,6.94204 -0.37536,0.86821 -0.84883,1.44859 -1.71253,2.09921 -0.86653,0.65274 -1.66647,1.09322 -6.01477,3.31193 -4.06639,2.07487 -4.74163,2.33811 -5.471,2.13285 z"
          id="path17" />
      <path
          style="fill:currentColor"
          d="m 115.39476,98.869201 c -0.78979,-0.19572 -7.36648,-3.52441 -9.12496,-4.61846 -2.01368,-1.25282 -2.921,-2.32523 -3.22803,-3.81532 -0.14506,-0.70403 -0.18235,-1.87342 -0.18136,-5.68696 0.001,-4.56879 0.0475,-6.12653 0.19656,-6.60616 0.29081,-0.93602 0.96989,-1.29497 1.96134,-1.03673 0.44616,0.11621 0.99504,0.39184 3.30055,1.65742 1.14554,0.62882 2.98577,1.62995 4.0894,2.22471 1.10363,0.59476 2.22377,1.20784 2.4892,1.36239 1.78447,1.03905 2.36529,1.74041 2.79522,3.37533 l 0.15053,0.57244 -0.001,4.8514 c -6.8e-4,2.66828 -0.0215,5.12573 -0.0462,5.46101 -0.0741,1.00417 -0.39348,1.70683 -0.95003,2.09037 -0.27725,0.19107 -0.29527,0.19586 -0.77316,0.20545 -0.26911,0.005 -0.57411,-0.0112 -0.67778,-0.0369 z"
          id="path16" />
      <path
          style="fill:currentColor"
          d="m 113.7161,103.60412 c -2.49322,-0.20577 -4.131,-0.52331 -6.12487,-1.1875 -3.60413,-1.2006 -6.83896,-3.229507 -9.445334,-5.924167 -3.095258,-3.20011 -5.122161,-7.24183 -5.610694,-11.1879 -0.443267,-3.58045 0.05854,-7.30852 1.47086,-10.927389 1.718683,-4.4039 4.673029,-8.22875 8.634388,-11.17853 2.41782,-1.80042 5.18345,-3.18312 8.06853,-4.03395 4.52509,-1.33448 9.07066,-1.43625 13.63545,-0.30529 3.80093,0.94172 7.40924,2.79918 10.57198,5.44218 0.78846,0.6589 2.55156,2.42651 3.20811,3.21634 0.96323,1.15875 1.90882,2.49071 2.51604,3.5441 0.19572,0.33953 0.22971,0.43264 0.17985,0.49272 -0.11423,0.13764 -1.02346,0.6978 -1.09074,0.67198 -0.0367,-0.0141 -0.3483,-0.36467 -0.69242,-0.77908 -0.75569,-0.91004 -2.52828,-2.69183 -3.40095,-3.4186 -1.20276,-1.00166 -2.73506,-2.08064 -3.937,-2.77226 -2.18431,-1.25688 -5.16321,-2.36509 -7.63742,-2.84127 -1.23465,-0.23762 -2.18635,-0.33391 -3.61478,-0.36573 -3.21814,-0.0717 -5.40481,0.22918 -8.04751,1.10726 -7.85545,2.61013 -13.687109,9.25423 -14.73053,16.782729 -0.281689,2.03244 -0.220508,4.24131 0.172365,6.223 0.898668,4.53297 3.548395,8.80511 7.518075,12.12133 3.00222,2.508027 6.67361,4.313107 10.541,5.182597 l 0.4064,0.0914 -0.254,0.0355 c -0.25167,0.0352 -1.94573,0.0428 -2.3368,0.0106 z"
          id="path15" />
      <path
          style="fill:currentColor"
          d="m 116.6223,110.596 c -4.505,-0.26773 -9.16865,-1.83918 -13.0408,-4.39419 -2.93111,-1.93406 -5.572804,-4.54768 -7.502368,-7.422617 -1.76852,-2.63499 -2.869359,-5.03853 -3.671979,-8.01732 -0.112672,-0.41816 -0.204325,-0.79535 -0.203674,-0.8382 6.51e-4,-0.0428 0.171732,0.31941 0.380179,0.80503 1.927457,4.49041 5.137844,8.30697 9.245242,10.990887 3.33334,2.17812 7.40422,3.59009 11.4046,3.95564 1.00472,0.0918 3.48518,0.079 4.445,-0.0229 4.90841,-0.52132 9.30857,-2.23259 13.12977,-5.10631 0.83579,-0.628537 1.15274,-0.898177 2.03046,-1.727337 3.26498,-3.08435 5.35579,-6.45741 6.64995,-10.7282 0.13868,-0.45764 0.27507,-0.83972 0.30311,-0.84906 0.028,-0.009 1.02719,0.17848 2.22034,0.41739 1.19316,0.2389 2.17838,0.43437 2.18938,0.43437 0.0454,0 0.013,0.28562 -0.10748,0.94912 -0.93853,5.16808 -3.63815,10.16789 -7.5245,13.935727 -2.0919,2.02811 -4.32323,3.60129 -6.95303,4.9022 -2.20222,1.0894 -4.281,1.79705 -6.62941,2.25679 -1.96973,0.3856 -4.51335,0.56904 -6.36479,0.45901 z"
          id="path14" />
    </g>
  </g>
</svg>
